<svg width="261" height="249" viewBox="0 0 261 249" fill="none" xmlns="http://www.w3.org/2000/svg">
<path d="M130.333 247C201.209 247 258.667 192.154 258.667 124.5C258.667 56.8451 201.209 2 130.333 2C59.4567 2 2 56.8451 2 124.5C2 192.154 59.4567 247 130.333 247Z" fill="white" stroke="black" stroke-width="3" stroke-linecap="round" stroke-linejoin="round"/>
<path d="M131.873 134.055C130.975 133.933 129.82 133.933 128.793 134.055C106.207 133.32 88.2395 115.68 88.2395 93.9973C88.2395 71.8248 106.977 53.8173 130.333 53.8173C153.562 53.8173 172.427 71.8248 172.427 93.9973C172.298 115.68 154.46 133.32 131.873 134.055Z" stroke="black" stroke-width="3" stroke-linecap="round" stroke-linejoin="round"/>
<path d="M216.83 214.906C193.987 234.874 163.7 247.001 130.333 247.001C96.9667 247.001 66.68 234.874 43.8367 214.906C45.12 203.391 52.82 192.121 66.5517 183.301C101.715 161.006 159.208 161.006 194.115 183.301C207.847 192.121 215.547 203.391 216.83 214.906Z" stroke="black" stroke-width="3" stroke-linecap="round" stroke-linejoin="round"/>
<path d="M130.333 247C201.209 247 258.667 192.154 258.667 124.5C258.667 56.8451 201.209 2 130.333 2C59.4567 2 2 56.8451 2 124.5C2 192.154 59.4567 247 130.333 247Z" stroke="black" stroke-width="3" stroke-linecap="round" stroke-linejoin="round"/>
</svg>
