<svg width="146" height="96" viewBox="0 0 146 96" fill="none" xmlns="http://www.w3.org/2000/svg">
<line x1="144.5" y1="1" x2="144.5" y2="96" stroke="white" stroke-width="3"/>
<path d="M109.719 37H25.6747M109.719 37V50M109.719 37H117.84M109.719 63C89.9065 63 49.349 63 25.6747 63M109.719 63V50M109.719 63C113.087 63 115.856 63 117.84 63M25.6747 37H24.4013C24.4013 37 12.993 42.6004 5.83265 46.5033M25.6747 37L30.3822 50M25.6747 63C25.2446 63 24.82 63 24.4013 63C24.4013 63 12.9914 57.8533 5.83265 53.9891M25.6747 63L30.3822 50M5.83265 46.5033V53.9891M5.83265 46.5033C5.10077 46.9022 4.41326 47.2834 3.78686 47.6391M5.83265 53.9891C5.1007 53.5941 4.41319 53.2124 3.78686 52.851M3.78686 47.6391C1.80767 48.7628 2.4843 48.8193 2.2525 49.1875C1.988 49.6077 1.43212 51.4922 3.78686 52.851M3.78686 47.6391V52.851M30.3822 50H109.719M117.84 37H121.18C122.453 37 125 37.975 125 41.875C125 45.775 125 54.3333 125 58.125C125 59.75 124.236 63 121.18 63C120.825 63 119.663 63 117.84 63M117.84 37V63" stroke="white" stroke-width="3"/>
<path fill-rule="evenodd" clip-rule="evenodd" d="M51.7435 37C55.4002 33.0052 60.6575 30.5 66.5 30.5C72.3425 30.5 77.5999 33.0052 81.2566 37H85.1233C80.943 31.2433 74.1587 27.5 66.5 27.5C58.8414 27.5 52.0571 31.2433 47.8768 37H51.7435ZM50.8866 63H47.1901C51.2893 69.3195 58.4065 73.5 66.5 73.5C74.5936 73.5 81.7108 69.3195 85.81 63H82.1135C78.4482 67.5723 72.816 70.5 66.5 70.5C60.1841 70.5 54.5519 67.5723 50.8866 63Z" fill="white"/>
<path fill-rule="evenodd" clip-rule="evenodd" d="M60.2111 0.5H59.1712L58.8064 1.47376L54.3269 13.4305L50.8206 14.9904L38.9032 9.52299L37.9268 9.07503L37.1883 9.85527L27.7883 19.7871L27.0668 20.5494L27.5358 21.4885L32.9454 32.3182L31.4546 35.3027L26.9328 37H33.9602L35.9641 32.9885L36.2989 32.3182L35.9641 31.6479L30.6887 21.0869L38.6287 12.6977L50.1856 17.9997L50.8015 18.2823L51.4208 18.0069L56.1208 15.916L56.6952 15.6604L56.9157 15.0717L61.2509 3.5H72.749L77.0842 15.0717L77.3234 15.7102L77.9617 15.9498L82.1395 17.518L82.7243 17.7375L83.2921 17.477L94.8766 12.1623L102.829 20.1229L97.9929 31.7417L97.765 32.2892L97.9731 32.8444L99.5299 37H106.757L102.106 35.324L100.99 32.3472L105.985 20.3492L106.37 19.4226L105.661 18.7126L96.2611 9.30349L95.5233 8.56496L94.5745 9.00027L82.6089 14.4898L79.6543 13.3807L75.1935 1.47376L74.8287 0.5H73.7888H60.2111ZM101.039 63H97.8355L97.7543 63.2167L98.0139 63.7836L103.325 75.3816L95.3988 83.315L83.8143 78.0003L83.1983 77.7177L82.5791 77.9931L77.8791 80.084L77.3047 80.3396L77.0842 80.9283L72.749 92.5H61.2509L56.9157 80.9283L56.6765 80.2898L56.0382 80.0502L51.8604 78.482L51.3042 78.2733L50.7559 78.5019L39.0958 83.365L30.7016 75.8471L35.986 64.3063L36.2848 63.6537L35.9641 63.0115L35.9583 63H32.6049L32.9595 63.71L27.5139 75.6028L27.0539 76.6075L27.877 77.3447L37.7992 86.231L38.5041 86.8623L39.3773 86.498L51.3623 81.4995L54.3456 82.6193L58.8064 94.5262L59.1712 95.5H60.2111H73.7888H74.8287L75.1935 94.5262L79.6729 82.5695L83.1793 81.0096L95.0967 86.477L96.0455 86.9123L96.7833 86.1738L106.183 76.7647L106.92 76.0275L106.486 75.0801L101.001 63.1015L101.039 63Z" fill="white"/>
</svg>
