<svg width="127" height="95" viewBox="0 0 127 95" fill="none" xmlns="http://www.w3.org/2000/svg">
<path d="M109.719 36.5H25.6747M109.719 36.5V49.5M109.719 36.5H117.84M109.719 62.5C89.9065 62.5 49.349 62.5 25.6747 62.5M109.719 62.5V49.5M109.719 62.5C113.087 62.5 115.856 62.5 117.84 62.5M25.6747 36.5H24.4013C24.4013 36.5 12.993 42.1004 5.83265 46.0033M25.6747 36.5L30.3822 49.5M25.6747 62.5C25.2446 62.5 24.82 62.5 24.4013 62.5C24.4013 62.5 12.9914 57.3533 5.83265 53.4891M25.6747 62.5L30.3822 49.5M5.83265 46.0033V53.4891M5.83265 46.0033C5.10077 46.4022 4.41326 46.7834 3.78686 47.1391M5.83265 53.4891C5.1007 53.0941 4.41319 52.7124 3.78686 52.351M3.78686 47.1391C1.80767 48.2628 2.4843 48.3193 2.2525 48.6875C1.988 49.1077 1.43212 50.9922 3.78686 52.351M3.78686 47.1391V52.351M30.3822 49.5H109.719M117.84 36.5H121.18C122.453 36.5 125 37.475 125 41.375C125 45.275 125 53.8333 125 57.625C125 59.25 124.236 62.5 121.18 62.5C120.825 62.5 119.663 62.5 117.84 62.5M117.84 36.5V62.5" stroke="black" stroke-width="3"/>
<path fill-rule="evenodd" clip-rule="evenodd" d="M51.7435 36.5C55.4002 32.5052 60.6575 30 66.5 30C72.3425 30 77.5999 32.5052 81.2566 36.5H85.1233C80.943 30.7433 74.1587 27 66.5 27C58.8414 27 52.0571 30.7433 47.8768 36.5H51.7435ZM50.8866 62.5H47.1901C51.2893 68.8195 58.4065 73 66.5 73C74.5936 73 81.7108 68.8195 85.81 62.5H82.1135C78.4482 67.0723 72.816 70 66.5 70C60.1841 70 54.5519 67.0723 50.8866 62.5Z" fill="black"/>
<path fill-rule="evenodd" clip-rule="evenodd" d="M60.2111 0H59.1712L58.8064 0.973761L54.3269 12.9305L50.8206 14.4904L38.9032 9.02299L37.9268 8.57503L37.1883 9.35527L27.7883 19.2871L27.0668 20.0494L27.5358 20.9885L32.9454 31.8182L31.4546 34.8027L26.9328 36.5H33.9602L35.9641 32.4885L36.2989 31.8182L35.9641 31.1479L30.6887 20.5869L38.6287 12.1977L50.1856 17.4997L50.8015 17.7823L51.4208 17.5069L56.1208 15.416L56.6952 15.1604L56.9157 14.5717L61.2509 3H72.749L77.0842 14.5717L77.3234 15.2102L77.9617 15.4498L82.1395 17.018L82.7243 17.2375L83.2921 16.977L94.8766 11.6623L102.829 19.6229L97.9929 31.2417L97.765 31.7892L97.9731 32.3444L99.5299 36.5H106.757L102.106 34.824L100.99 31.8472L105.985 19.8492L106.37 18.9226L105.661 18.2126L96.2611 8.80349L95.5233 8.06496L94.5745 8.50027L82.6089 13.9898L79.6543 12.8807L75.1935 0.973761L74.8287 0H73.7888H60.2111ZM101.039 62.5H97.8355L97.7543 62.7167L98.0139 63.2836L103.325 74.8816L95.3988 82.815L83.8143 77.5003L83.1983 77.2177L82.5791 77.4931L77.8791 79.584L77.3047 79.8396L77.0842 80.4283L72.749 92H61.2509L56.9157 80.4283L56.6765 79.7898L56.0382 79.5502L51.8604 77.982L51.3042 77.7733L50.7559 78.0019L39.0958 82.865L30.7016 75.3471L35.986 63.8063L36.2848 63.1537L35.9641 62.5115L35.9583 62.5H32.6049L32.9595 63.21L27.5139 75.1028L27.0539 76.1075L27.877 76.8447L37.7992 85.731L38.5041 86.3623L39.3773 85.998L51.3623 80.9995L54.3456 82.1193L58.8064 94.0262L59.1712 95H60.2111H73.7888H74.8287L75.1935 94.0262L79.6729 82.0695L83.1793 80.5096L95.0967 85.977L96.0455 86.4123L96.7833 85.6738L106.183 76.2647L106.92 75.5275L106.486 74.5801L101.001 62.6015L101.039 62.5Z" fill="black"/>
</svg>
