<svg width="26" height="22" viewBox="0 0 26 22" fill="none" xmlns="http://www.w3.org/2000/svg">
<path d="M23.5625 21.5625H2.4375C1.09362 21.5625 0 20.4689 0 19.125V6.125C0 4.78113 1.09362 3.6875 2.4375 3.6875H5.99706L7.39538 0.887625C7.53188 0.611375 7.81381 0.4375 8.12175 0.4375H17.8799C18.1878 0.4375 18.4689 0.611375 18.6071 0.887625L20.0029 3.6875H23.5625C24.9064 3.6875 26 4.78113 26 6.125V19.125C26 20.4689 24.9064 21.5625 23.5625 21.5625ZM24.375 6.125C24.375 5.67731 24.0102 5.3125 23.5625 5.3125H19.5C19.4594 5.3125 19.4244 5.29544 19.3854 5.28975C19.3277 5.28081 19.2701 5.27594 19.2148 5.25481C19.1653 5.23612 19.1238 5.20606 19.0791 5.17763C19.0352 5.15081 18.9906 5.12806 18.9524 5.09231C18.9093 5.0525 18.8784 5.00375 18.8451 4.955C18.8224 4.9225 18.7907 4.89894 18.7728 4.86238L17.3769 2.0625H8.62469L7.22719 4.86238C7.189 4.93956 7.13781 5.00619 7.08094 5.06469C7.06956 5.07688 7.05575 5.08419 7.04356 5.09556C6.98506 5.14838 6.92088 5.19144 6.851 5.22475C6.82744 5.23694 6.80469 5.24669 6.7795 5.25644C6.69012 5.28894 6.5975 5.31169 6.50163 5.3125H6.5H2.4375C1.98981 5.3125 1.625 5.67731 1.625 6.125V19.125C1.625 19.5727 1.98981 19.9375 2.4375 19.9375H23.5625C24.0102 19.9375 24.375 19.5727 24.375 19.125V6.125ZM13 17.5C9.86375 17.5 7.3125 14.9487 7.3125 11.8125C7.3125 8.67625 9.86375 6.125 13 6.125C16.1362 6.125 18.6875 8.67625 18.6875 11.8125C18.6875 14.9487 16.1362 17.5 13 17.5ZM13 7.75C10.7599 7.75 8.9375 9.57244 8.9375 11.8125C8.9375 14.0526 10.7599 15.875 13 15.875C15.2401 15.875 17.0625 14.0526 17.0625 11.8125C17.0625 9.57244 15.2401 7.75 13 7.75Z" fill="white"/>
</svg>
