<svg width="650" height="801" viewBox="0 0 650 801" fill="none" xmlns="http://www.w3.org/2000/svg">
<path fill-rule="evenodd" clip-rule="evenodd" d="M500 201C472.4 201 450 178.6 450 151V50.9999L600 201H500ZM600 701C600 728.6 577.6 751 550 751H100C72.4 751 50 728.6 50 701V101C50 73.3999 72.4 50.9999 100 50.9999H399.3C398.85 110.875 400 151 400 151C400 206.225 444.775 251 500 251H600V701ZM450 0.999937V1.69993C446.8 1.69993 433.45 0.474937 400 0.999937H100C44.775 0.999937 0 45.7749 0 101V701C0 756.225 44.775 801 100 801H550C605.225 801 650 756.225 650 701V251V201L450 0.999937Z" fill="black"/>
</svg>
