<svg width="700" height="800" viewBox="0 0 700 800" fill="none" xmlns="http://www.w3.org/2000/svg">
<path d="M650 0H50C22.3625 0 0 22.3625 0 50V750C0 777.637 22.3625 800 50 800H650C677.637 800 700 777.637 700 750V50C700 22.3625 677.637 0 650 0ZM675 750C675 763.8 663.8 775 650 775H50C36.2 775 25 763.8 25 750V50C25 36.2 36.2 25 50 25H650C663.8 25 675 36.2 675 50V750Z" fill="#231F20"/>
<path d="M562.5 312.5H137.5C130.588 312.5 125 318.088 125 325C125 331.912 130.588 337.5 137.5 337.5H562.5C569.412 337.5 575 331.912 575 325C575 318.088 569.412 312.5 562.5 312.5Z" fill="#231F20"/>
<path d="M562.5 237.5H137.5C130.588 237.5 125 243.088 125 250C125 256.912 130.588 262.5 137.5 262.5H562.5C569.412 262.5 575 256.912 575 250C575 243.088 569.412 237.5 562.5 237.5Z" fill="#231F20"/>
<path d="M562.5 462.5H137.5C130.588 462.5 125 468.088 125 475C125 481.912 130.588 487.5 137.5 487.5H562.5C569.412 487.5 575 481.912 575 475C575 468.088 569.412 462.5 562.5 462.5Z" fill="#231F20"/>
<path d="M562.5 537.5H137.5C130.588 537.5 125 543.088 125 550C125 556.912 130.588 562.5 137.5 562.5H562.5C569.412 562.5 575 556.912 575 550C575 543.088 569.412 537.5 562.5 537.5Z" fill="#231F20"/>
<path d="M562.5 612.5H137.5C130.588 612.5 125 618.088 125 625C125 631.912 130.588 637.5 137.5 637.5H562.5C569.412 637.5 575 631.912 575 625C575 618.088 569.412 612.5 562.5 612.5Z" fill="#231F20"/>
<path d="M562.5 387.5H137.5C130.588 387.5 125 393.088 125 400C125 406.912 130.588 412.5 137.5 412.5H562.5C569.412 412.5 575 406.912 575 400C575 393.088 569.412 387.5 562.5 387.5Z" fill="#231F20"/>
<path d="M137.5 187.5H337.5C344.412 187.5 350 181.912 350 175C350 168.088 344.412 162.5 337.5 162.5H137.5C130.588 162.5 125 168.088 125 175C125 181.912 130.588 187.5 137.5 187.5Z" fill="#231F20"/>
</svg>
