<svg width="17" height="22" viewBox="0 0 17 22" fill="none" xmlns="http://www.w3.org/2000/svg">
<path d="M16 6.64103H11.6452C11.3885 6.64103 11.1424 6.53297 10.9609 6.34062C10.7794 6.14828 10.6774 5.8874 10.6774 5.61538V1H1.96774C1.71108 1 1.46493 1.10806 1.28345 1.3004C1.10196 1.49275 1 1.75362 1 2.02564V19.9744C1 20.2464 1.10196 20.5073 1.28345 20.6996C1.46493 20.8919 1.71108 21 1.96774 21H15.0323C15.2889 21 15.5351 20.8919 15.7166 20.6996C15.898 20.5073 16 20.2464 16 19.9744V6.64103Z" stroke="black" stroke-width="1.3" stroke-linecap="round" stroke-linejoin="round"/>
<path d="M11 1L16 7" stroke="black" stroke-width="1.3" stroke-linecap="round" stroke-linejoin="round"/>
</svg>
